<?xml version="1.0" encoding="iso-8859-1"?>
<!-- Generator: Adobe Illustrator 19.0.0, SVG Export Plug-In . SVG Version: 6.00 Build 0)  -->
<svg version="1.1" id="Layer_1" xmlns="http://www.w3.org/2000/svg" xmlns:xlink="http://www.w3.org/1999/xlink" x="0px" y="0px"
	 viewBox="0 0 511.996 511.996" style="enable-background:new 0 0 511.996 511.996;" xml:space="preserve">
<g>
	<g>
		<g>
			<path d="M151.547,402.191c4.172-4.156,4.172-10.922,0-15.078c-4.172-4.166-10.922-4.166-15.093,0
				c-4.157,4.156-4.157,10.922,0,15.078C140.625,406.369,147.375,406.369,151.547,402.191z"/>
			<path d="M349.792,402.191c4.157,4.178,10.902,4.178,15.079,0c4.167-4.156,4.167-10.922,0-15.078
				c-4.177-4.166-10.922-4.166-15.079,0C345.616,391.269,345.616,398.035,349.792,402.191z"/>
			<path d="M421.322,170.662v-42.667c0-5.887-4.765-10.661-10.657-10.661V42.662C410.665,19.102,391.558,0,367.999,0H133.341
				c-23.578,0-42.667,19.103-42.667,42.662V469.32c0,23.578,19.089,42.676,42.667,42.676h234.658
				c23.559,0,42.666-19.098,42.666-42.676V255.996c5.893,0,10.657-4.774,10.657-10.662v-42.672c0-5.892-4.765-10.666-10.657-10.666
				v-10.662C416.558,181.334,421.322,176.555,421.322,170.662z M389.322,469.32c0,11.764-9.559,21.342-21.323,21.342H133.341
				c-11.765,0-21.343-9.578-21.343-21.342v-21.324h277.324V469.32z M188.435,388.26c7.828,1.854,18.436,3.795,31.936,5.051
				c4,13.107,16.206,22.686,30.613,22.686c14.402,0,26.623-9.578,30.623-22.707c13.205-1.234,23.578-3.137,31.284-4.969
				c-3.843,15.91-13.647,29.529-26.893,38.342h-70.657v-0.001C202.062,417.84,192.263,404.191,188.435,388.26z M240.326,383.996
				c0-5.883,4.779-10.676,10.657-10.676c5.887,0,10.672,4.793,10.672,10.676c0,5.873-4.785,10.666-10.672,10.666
				C245.106,394.662,240.326,389.869,240.326,383.996z M280.626,371.928c-4.785-11.668-16.27-19.932-29.643-19.932
				c-13.392,0-24.877,8.264-29.642,19.951c-15.294-1.471-26.873-3.893-34.25-6.029c3.687-31.814,30.799-56.6,63.579-56.6
				c32.799,0,59.907,24.814,63.563,56.648C307.028,368.084,295.685,370.477,280.626,371.928z M389.322,426.662h-72.108
				c11.755-14.627,18.784-33.166,18.784-53.342c0-47.041-38.284-85.324-85.328-85.324s-85.329,38.283-85.329,85.324
				c0,20.176,7.034,38.715,18.765,53.342h-72.108V85.334h277.324V426.662z M389.322,64H111.998V42.662
				c0-11.755,9.578-21.329,21.343-21.329h234.658c11.764,0,21.323,9.574,21.323,21.329V64z"/>
			<path d="M175.998,479.996h149.323c5.893,0,10.677-4.785,10.677-10.676c0-5.892-4.784-10.658-10.677-10.658H175.998
				c-5.893,0-10.657,4.766-10.657,10.658C165.341,475.211,170.106,479.996,175.998,479.996z"/>
			<path d="M325.321,32c-5.892,0-10.656,4.774-10.656,10.662c0,5.892,4.765,10.671,10.656,10.671
				c5.893,0,10.677-4.779,10.677-10.671C335.998,36.774,331.214,32,325.321,32z"/>
			<path d="M293.321,32H175.998c-5.893,0-10.657,4.774-10.657,10.662c0,5.892,4.764,10.671,10.657,10.671h117.323
				c5.893,0,10.677-4.779,10.677-10.671C303.998,36.774,299.214,32,293.321,32z"/>
			<path d="M193.997,183.021c-2.343,8.107-3.157,16.529-3.437,20.554c-1.265,3.642-3.813,12.132-3.892,21.932
				c-0.123,18.362,8.593,32.107,24.579,38.676c27.623,11.363,36.279,12.971,38.716,13.127l0.706,0.049l0.701-0.049
				c2.441-0.156,11.093-1.764,38.716-13.127c15.971-6.568,24.705-20.313,24.568-38.676c-0.068-9.8-2.607-18.29-3.893-21.932
				c-0.265-4.024-1.098-12.446-3.441-20.554c32.816-23.143,46.6-45.422,40.913-66.266c-0.754-2.804-2.627-5.171-5.176-6.563
				c-2.549-1.387-5.559-1.677-8.324-0.804c-1.02,0.323-25.412,8.103-49.049,22.789c-9.578,5.961-17.284,11.961-23.422,17.897
				c-4.686-0.623-8.529-0.74-10.799-0.74c-0.343,0-0.608,0-0.794,0c-0.187,0-0.471,0-0.799,0c-1.921,0-5.873,0.103-10.829,0.765
				c-7.279-7.039-15.529-13.024-23.387-17.922c-23.642-14.687-48.03-22.466-49.064-22.789c-2.765-0.873-5.765-0.583-8.309,0.804
				c-2.549,1.393-4.422,3.76-5.191,6.563C147.419,137.599,161.183,159.878,193.997,183.021z M296.636,150.49
				c10-6.25,20.362-11.181,28.549-14.666c-4.549,8.554-14.374,18.442-28.716,28.75c-3.117-2.868-6.52-5.196-10.049-7.084
				C289.548,155.123,292.949,152.795,296.636,150.49z M217.185,182.515c9.421-11.521,30.328-11.854,32.686-11.854
				c0.25,0,0.421,0.005,0.441,0.005l0.294,0.01l0.377-0.01c0.059,0,0.216-0.005,0.48-0.005c2.363,0,23.27,0.333,32.672,11.854
				c2.705,3.304,4.99,14.966,5.422,23.77l0.078,1.813l0.686,1.682c0.029,0.068,2.941,7.5,3,15.872
				c0.099,12.633-6.43,16.78-11.352,18.805c-19.813,8.146-28.377,10.632-31.299,11.343c-2.937-0.711-11.5-3.196-31.314-11.343
				c-5.25-2.162-11.28-6.196-11.343-18.334c-0.063-8.534,2.985-16.304,3-16.343l0.672-1.682l0.093-1.804
				C212.2,197.481,214.484,185.818,217.185,182.515z M204.39,150.3c3.794,2.362,7.309,4.76,10.53,7.19
				c-3.765,2.015-7.128,4.373-10.049,7.079c-14.358-10.314-24.186-20.206-28.731-28.759
				C184.233,139.255,194.434,144.123,204.39,150.3z"/>
			<path d="M236.871,210.206c4.171-4.161,4.171-10.921,0-15.083c-4.157-4.167-10.922-4.167-15.079,0
				c-4.171,4.162-4.171,10.922,0,15.083C225.949,214.373,232.714,214.373,236.871,210.206z"/>
			<path d="M279.548,210.206c4.156-4.161,4.156-10.921,0-15.083c-4.177-4.167-10.922-4.167-15.099,0
				c-4.157,4.162-4.157,10.922,0,15.083C268.626,214.373,275.371,214.373,279.548,210.206z"/>
		</g>
	</g>
</g>
<g>
</g>
<g>
</g>
<g>
</g>
<g>
</g>
<g>
</g>
<g>
</g>
<g>
</g>
<g>
</g>
<g>
</g>
<g>
</g>
<g>
</g>
<g>
</g>
<g>
</g>
<g>
</g>
<g>
</g>
</svg>
