<svg height="512pt" viewBox="-98 0 512 512" width="512pt" xmlns="http://www.w3.org/2000/svg"><path d="m51.199219 512h221.867187c23.550782-.027344 42.640625-19.113281 42.667969-42.667969v-426.664062c-.027344-23.554688-19.117187-42.6406252-42.667969-42.667969h-221.867187c-23.550781.0273438-42.636719 19.113281-42.664063 42.667969v42.664062c-4.714844 0-8.535156 3.820313-8.535156 8.535157v34.132812c0 4.710938 3.820312 8.535156 8.535156 8.535156v17.066406c-4.714844 0-8.535156 3.820313-8.535156 8.53125v34.132813c0 4.714844 3.820312 8.535156 8.535156 8.535156v264.53125c.027344 23.554688 19.113282 42.640625 42.664063 42.667969zm-25.597657-315.734375v-110.933594h273.066407v341.335938h-273.066407zm162.132813 273.066406c0 14.140625-11.460937 25.601563-25.601563 25.601563-14.136718 0-25.597656-11.460938-25.597656-25.601563 0-14.136719 11.460938-25.597656 25.597656-25.597656 14.140626 0 25.601563 11.460937 25.601563 25.597656zm-162.132813 0v-25.597656h102.621094c-11.671875 15.070313-11.671875 36.128906 0 51.199219h-77.023437c-14.136719 0-25.597657-11.460938-25.597657-25.601563zm247.464844 25.601563h-77.023437c11.671875-15.070313 11.671875-36.128906 0-51.199219h102.625v25.597656c0 14.140625-11.460938 25.601563-25.601563 25.601563zm-221.867187-477.867188h221.867187c14.140625 0 25.601563 11.460938 25.601563 25.601563v25.597656h-273.066407v-25.597656c0-14.140625 11.460938-25.601563 25.597657-25.601563zm0 0"/><path d="m170.667969 42.667969c0 4.710937-3.820313 8.53125-8.535157 8.53125-4.710937 0-8.53125-3.820313-8.53125-8.53125 0-4.714844 3.820313-8.535157 8.53125-8.535157 4.714844 0 8.535157 3.820313 8.535157 8.535157zm0 0"/><path d="m170.667969 264.535156c0 4.710938-3.820313 8.53125-8.535157 8.53125-4.710937 0-8.53125-3.820312-8.53125-8.53125 0-4.714844 3.820313-8.535156 8.53125-8.535156 4.714844 0 8.535157 3.820312 8.535157 8.535156zm0 0"/><path d="m281.601562 264.535156c0-65.980468-53.488281-119.46875-119.46875-119.46875-65.980468 0-119.464843 53.488282-119.464843 119.46875 0 65.976563 53.484375 119.464844 119.464843 119.464844 65.949219-.070312 119.398438-53.515625 119.46875-119.464844zm-119.46875-102.402344c53.21875.066407 97.542969 40.839844 102.042969 93.867188h-60.230469c0-.152344-.101562-.289062-.136718-.445312-.527344-2.429688-1.265625-4.804688-2.207032-7.105469-.335937-.8125-.777343-1.554688-1.160156-2.339844-.734375-1.566406-1.558594-3.089844-2.476562-4.554687-.546875-.855469-1.160156-1.613282-1.765625-2.417969-.9375-1.277344-1.945313-2.503907-3.023438-3.667969-.714843-.757812-1.457031-1.46875-2.226562-2.175781-1.144531-1.058594-2.34375-2.046875-3.601563-2.96875-.851562-.625-1.703125-1.222657-2.558594-1.785157-1.359374-.839843-2.769531-1.605468-4.214843-2.285156-.90625-.445312-1.792969-.90625-2.730469-1.28125-1.660156-.628906-3.355469-1.15625-5.078125-1.578125-.851563-.222656-1.65625-.511719-2.558594-.683593-5.351562-1.089844-10.863281-1.089844-16.214843 0-.851563.171874-1.707032.460937-2.558594.683593-1.722656.421875-3.417969.949219-5.078125 1.578125-.9375.375-1.828125.851563-2.730469 1.28125-1.449219.679688-2.855469 1.445313-4.214844 2.285156-.855468.5625-1.707031 1.160157-2.5625 1.785157-1.253906.921875-2.457031 1.910156-3.601562 2.96875-.765625.707031-1.507813 1.417969-2.226563 2.175781-1.074219 1.164062-2.082031 2.390625-3.019531 3.667969-.605469.804687-1.21875 1.570312-1.765625 2.417969-.917969 1.464843-1.742187 2.988281-2.476563 4.554687-.382812.785156-.851562 1.527344-1.160156 2.339844-.941406 2.300781-1.683594 4.675781-2.210937 7.105469 0 .15625-.101563.292968-.136719.445312h-60.160156c4.5-53.027344 48.824218-93.800781 102.042968-93.867188zm25.601563 102.402344c0 14.136719-11.460937 25.597656-25.601563 25.597656-14.136718 0-25.597656-11.460937-25.597656-25.597656 0-14.140625 11.460938-25.601562 25.597656-25.601562 14.140626 0 25.601563 11.460937 25.601563 25.601562zm-127.644531 8.53125h60.230468c0 .152344.101563.289063.136719.445313.527344 2.429687 1.265625 4.808593 2.210938 7.105469.332031.8125.773437 1.554687 1.160156 2.339843.730469 1.570313 1.554687 3.089844 2.472656 4.554688.546875.855469 1.160157 1.613281 1.765625 2.425781.941406 1.273438 1.949219 2.496094 3.023438 3.660156.714844.757813 1.457031 1.46875 2.226562 2.175782 1.144532 1.058593 2.347656 2.046874 3.601563 2.96875.851562.625 1.707031 1.222656 2.558593 1.785156 1.363282.839844 2.769532 1.605468 4.214844 2.285156.90625.445312 1.792969.90625 2.730469 1.28125 1.65625.628906 3.351563 1.15625 5.070313 1.578125.851562.214844 1.65625.511719 2.558593.683594 5.351563 1.09375 10.867188 1.09375 16.214844 0 .851563-.171875 1.707031-.46875 2.558594-.683594 1.722656-.421875 3.414062-.949219 5.070312-1.578125.9375-.375 1.824219-.851562 2.730469-1.28125 1.445312-.679688 2.855469-1.445312 4.214844-2.285156.855468-.5625 1.707031-1.160156 2.5625-1.785156 1.253906-.921876 2.457031-1.910157 3.597656-2.96875.769531-.707032 1.511719-1.417969 2.230469-2.175782 1.074219-1.164062 2.082031-2.386718 3.019531-3.660156.605469-.8125 1.21875-1.578125 1.765625-2.425781.917969-1.464844 1.746094-2.984375 2.476563-4.554688.382812-.785156.851562-1.527343 1.160156-2.339843.941406-2.296876 1.683594-4.675782 2.210937-7.105469 0-.15625.101563-.292969.132813-.445313h60.238281c-4.449219 53.050782-48.804687 93.839844-102.042969 93.839844-53.234375 0-97.589844-40.789062-102.039062-93.839844zm0 0"/><path d="m243.652344 144.214844c4.21875 2.105468 9.347656.394531 11.453125-3.824219l8.53125-17.066406c2.105469-4.21875.394531-9.34375-3.824219-11.453125-4.214844-2.105469-9.34375-.394532-11.449219 3.824218l-8.535156 17.066407c-2.109375 4.21875-.394531 9.347656 3.824219 11.453125zm0 0"/><path d="m258.5 168.167969c3.332031 3.328125 8.734375 3.328125 12.066406 0l8.535156-8.535157c3.230469-3.347656 3.1875-8.671874-.105468-11.960937-3.292969-3.292969-8.613282-3.339844-11.960938-.105469l-8.535156 8.535156c-3.332031 3.332032-3.332031 8.734376 0 12.066407zm0 0"/><path d="m69.164062 140.347656c2.105469 4.21875 7.230469 5.929688 11.449219 3.824219 4.21875-2.109375 5.929688-7.234375 3.824219-11.453125l-8.535156-17.066406c-2.105469-4.21875-7.230469-5.929688-11.449219-3.824219-4.21875 2.109375-5.929687 7.234375-3.824219 11.453125zm0 0"/><path d="m53.699219 168.167969c3.347656 3.230469 8.671875 3.1875 11.964843-.105469 3.289063-3.292969 3.335938-8.613281.101563-11.960938l-8.53125-8.535156c-3.347656-3.234375-8.671875-3.1875-11.964844.105469-3.289062 3.289063-3.335937 8.613281-.101562 11.960937zm0 0"/></svg>