<svg height="416pt" viewBox="-13 0 416 416.02304" width="416pt" xmlns="http://www.w3.org/2000/svg"><path d="m41.492188 28.503906c1.746093 0 3.492187-.664062 4.824218-2l14.855469-14.851562c2.664063-2.664063 2.664063-6.988282 0-9.652344-2.667969-2.667969-6.988281-2.667969-9.652344 0l-14.855469 14.851562c-2.664062 2.667969-2.664062 6.988282 0 9.652344 1.332032 1.335938 3.078126 2 4.828126 2zm0 0"/><path d="m26.515625 46.304688c2.667969-2.664063 2.667969-6.984376 0-9.652344-2.664063-2.664063-6.984375-2.664063-9.652344 0l-14.851562 14.855468c-2.667969 2.664063-2.667969 6.984376 0 9.652344 1.332031 1.332032 3.078125 2 4.824219 2 1.746093 0 3.496093-.667968 4.828124-2zm0 0"/><path d="m16.863281 26.503906c1.332031 1.335938 3.082031 2 4.828125 2s3.492188-.664062 4.824219-2c2.667969-2.664062 2.667969-6.984375 0-9.652344l-14.851563-14.851562c-2.667968-2.667969-6.988281-2.667969-9.652343 0-2.667969 2.664062-2.667969 6.988281 0 9.652344zm0 0"/><path d="m51.519531 61.160156c1.332031 1.332032 3.078125 2 4.824219 2s3.492188-.667968 4.828125-2c2.664063-2.667968 2.664063-6.988281 0-9.652344l-14.855469-14.855468c-2.664062-2.664063-6.984375-2.664063-9.652344 0-2.664062 2.667968-2.664062 6.988281 0 9.652344zm0 0"/><path d="m344.296875 80.519531c11.613281 0 21.058594-9.445312 21.058594-21.054687 0-11.613282-9.445313-21.058594-21.058594-21.058594s-21.0625 9.445312-21.0625 21.058594c0 11.609375 9.449219 21.054687 21.0625 21.054687zm0-28.460937c4.085937 0 7.40625 3.320312 7.40625 7.40625 0 4.082031-3.320313 7.402344-7.40625 7.402344s-7.40625-3.320313-7.40625-7.402344c0-4.085938 3.320313-7.40625 7.40625-7.40625zm0 0"/><path d="m292.058594 25.328125c0 5.082031-4.121094 9.203125-9.203125 9.203125s-9.203125-4.121094-9.203125-9.203125 4.121094-9.199219 9.203125-9.199219 9.203125 4.117188 9.203125 9.199219zm0 0"/><path d="m185.53125 68.699219c1.332031 1.332031 3.078125 2 4.824219 2 1.746093 0 3.496093-.667969 4.828125-2l5.234375-5.234375 5.238281 5.234375c1.332031 1.332031 3.078125 2 4.824219 2 1.746093 0 3.496093-.667969 4.828125-2 2.664062-2.664063 2.664062-6.988281 0-9.652344l-5.234375-5.234375 5.234375-5.230469c2.664062-2.667969 2.664062-6.988281 0-9.652343-2.667969-2.667969-6.988282-2.667969-9.652344 0l-5.238281 5.234374-5.234375-5.234374c-2.667969-2.667969-6.988282-2.667969-9.652344 0-2.667969 2.664062-2.667969 6.984374 0 9.652343l5.234375 5.230469-5.234375 5.234375c-2.667969 2.664063-2.667969 6.988281 0 9.652344zm0 0"/><path d="m381.5625 325.78125-15.914062-19.097656c-4.917969-5.898438-8.316407-13.003906-9.832032-20.542969-2.066406-10.359375-.507812-21.214844 4.386719-30.5625l14.875-28.394531c8.023437-15.332032 6.503906-34.175782-3.875-48.019532-10.160156-13.550781-26.867187-20.257812-43.535156-17.445312l-13.898438 2.320312c-9.941406 1.683594-19.953125-2.234374-26.167969-10.148437l-13.652343-17.375c-6.441407-8.191406-15.074219-14.265625-24.96875-17.566406-11.3125-3.777344-23.734375-3.605469-34.953125.46875l-7.363282 2.679687c-4.367187 1.585938-9.292968.050782-11.996093-3.722656-6.398438-8.964844-16.378907-14.59375-27.359375-15.441406l-12.390625-.953125c-11.375-.878907-22.386719 3.433593-30.132813 11.835937l-16.574218 17.953125c-1.671876 1.8125-3.953126 2.8125-6.429688 2.8125-2.472656 0-4.757812-1-6.4375-2.820312l-16.964844-18.378907c-7.636718-8.269531-19.109375-11.574218-29.960937-8.601562-15.386719 4.199219-24.8125 19.707031-21.445313 35.308594l12.757813 59.011718c4.769531 22.046876 2.59375 44.800782-6.285157 65.820313-8.378906 19.839844-14.75 37.300781-18.921874 51.894531-4.132813 14.464844-4.300782 29.519532-.472657 43.53125 6.671875 24.441406 25.472657 37 124.71875 51.519532 18.90625 2.773437 38.316407 4.15625 58.117188 4.15625 30.070312 0 61.0625-3.1875 92.679687-9.554688 3.699219-.746094 6.085938-4.347656 5.347656-8.039062-.75-3.699219-4.363281-6.113282-8.042968-5.347657-50.882813 10.246094-100.050782 12.027344-146.125 5.28125-98.78125-14.453125-109.359375-26.359375-113.519532-41.613281-3.167968-11.601562-3.023437-24.113281.433594-36.1875 4.019532-14.058594 10.191406-30.992188 18.359375-50.328125 9.980469-23.617187 12.417969-49.210937 7.058594-74.011719l-12.757813-59.011718c-1.835937-8.507813 3.300782-16.96875 11.699219-19.253907 5.910157-1.621093 12.164063.1875 16.332031 4.695313l16.964844 18.378906c4.226563 4.582031 10.234375 7.207031 16.464844 7.207031h.007812c6.234376 0 12.234376-2.625 16.453126-7.207031l16.574218-17.953125c4.898438-5.308594 11.902344-8.027344 19.046875-7.480469l12.402344.953125c6.9375.53125 13.246094 4.09375 17.296875 9.761719 6.253906 8.746094 17.679688 12.296875 27.769531 8.613281l7.367188-2.679687c8.324219-3.023438 17.558593-3.15625 25.964843-.347656 7.355469 2.453124 13.765626 6.972656 18.554688 13.058593l13.652344 17.375c9.300781 11.835938 24.273437 17.640625 39.148437 15.175781l13.898438-2.320312c11.675781-1.960938 23.277343 2.726562 30.367187 12.167969 7.242188 9.65625 8.300782 22.804687 2.699219 33.5l-14.871094 28.390625c-6.339843 12.101562-8.359375 26.15625-5.679687 39.570312 1.957031 9.773438 6.359375 18.972656 12.726562 26.617188l15.917969 19.097656c3.554687 4.265625 5.511719 9.671875 5.511719 15.230469 0 9.882812-6.179688 18.828125-15.371094 22.269531-5.101562 1.898438-11.121094 4.03125-17.949219 6.257812-3.585937 1.175782-5.546875 5.027344-4.378906 8.609376 1.175781 3.589843 5.054687 5.550781 8.609375 4.378906 7.039062-2.292969 13.230469-4.496094 18.492188-6.460938 14.507812-5.421875 24.253906-19.507812 24.253906-35.054687-.003906-8.75-3.089844-17.269531-8.683594-23.980469zm0 0"/><path d="m324.375 384.027344c-3.359375.953125-6.847656 1.898437-10.445312 2.832031-3.652344.949219-5.839844 4.671875-4.894532 8.320313.800782 3.074218 3.570313 5.113281 6.601563 5.113281.566406 0 1.148437-.066407 1.71875-.21875 3.695312-.960938 7.273437-1.933594 10.726562-2.902344 3.628907-1.027344 5.742188-4.792969 4.722657-8.425781-1.027344-3.621094-4.78125-5.726563-8.429688-4.71875zm0 0"/><path d="m244.179688 183.613281c0-3.496093-2.832032-6.328125-6.328126-6.328125-3.496093 0-6.328124 2.832032-6.328124 6.328125 0 3.496094 2.832031 6.328125 6.328124 6.328125 3.496094 0 6.328126-2.832031 6.328126-6.328125zm0 0"/><path d="m165.070312 174.117188c0-3.492188-2.835937-6.328126-6.328124-6.328126-3.496094 0-6.328126 2.835938-6.328126 6.328126 0 3.496093 2.832032 6.328124 6.328126 6.328124 3.492187.003907 6.328124-2.832031 6.328124-6.328124zm0 0"/><path d="m117.351562 194.445312c-1.007812 3.632813 1.117188 7.394532 4.753907 8.410157 2.144531.59375 48.867187 13.324219 119.003906 13.324219 7.199219 0 14.652344-.132813 22.320313-.433594 3.773437-.144532 6.707031-3.3125 6.558593-7.078125-.136719-3.773438-3.449219-6.828125-7.078125-6.558594-80.140625 3.070313-136.597656-12.261719-137.152344-12.414063-3.6875-1.003906-7.398437 1.125-8.40625 4.75zm0 0"/></svg>